<svg width="208" height="212" viewBox="0 0 208 212" fill="none" xmlns="http://www.w3.org/2000/svg">
<path d="M42 42H166V40H42V42ZM167 43V167H169V43H167ZM166 168H42V170H166V168ZM41 167V43H39V167H41ZM42 168C41.4477 168 41 167.552 41 167H39C39 168.657 40.3431 170 42 170V168ZM167 167C167 167.552 166.552 168 166 168V170C167.657 170 169 168.657 169 167H167ZM166 42C166.552 42 167 42.4477 167 43H169C169 41.3431 167.657 40 166 40V42ZM42 40C40.3431 40 39 41.3431 39 43H41C41 42.4477 41.4477 42 42 42V40Z" fill="black" fill-opacity="0.1"/>
<rect x="40.5" y="40.5" width="127" height="127" rx="3.5" fill="#25B3A7" stroke="#ECCB12"/>
<g filter="url(#filter0_d_1669_162202)">
<rect x="127" y="127" width="34" height="36" rx="4" fill="#25B2A7"/>
<rect x="126.5" y="126.5" width="35" height="37" rx="4.5" stroke="#EBCE2D"/>
</g>
<rect x="128" y="128" width="32" height="3" rx="1.5" fill="#ECCB12"/>
<g filter="url(#filter1_d_1669_162202)">
<circle cx="90.5" cy="90.5" r="37.5" fill="#FFF1A2"/>
<circle cx="90.5" cy="90.5" r="37" stroke="#ECCB12"/>
</g>
<circle cx="134" cy="120" r="5.5" fill="#FFE96D" stroke="#ECCB12"/>
<circle cx="68" cy="127" r="14.5" fill="#FFF1A1" stroke="#ECCB12"/>
<rect x="40" y="5" width="59.375" height="30" rx="3" fill="black"/>
<rect x="40.5" y="5.5" width="58.375" height="29" rx="2.5" stroke="black" stroke-opacity="0.2"/>
<path d="M51.3438 17C51.2969 16.6042 51.1068 16.2969 50.7734 16.0781C50.4401 15.8594 50.0313 15.75 49.5469 15.75C49.1927 15.75 48.8828 15.8073 48.6172 15.9219C48.3542 16.0365 48.1484 16.194 48 16.3945C47.8542 16.5951 47.7813 16.8229 47.7813 17.0781C47.7813 17.2917 47.832 17.4753 47.9336 17.6289C48.0378 17.7799 48.1706 17.9062 48.332 18.0078C48.4935 18.1068 48.6628 18.1888 48.8398 18.2539C49.0169 18.3164 49.1797 18.3672 49.3281 18.4062L50.1406 18.625C50.349 18.6797 50.5807 18.7552 50.8359 18.8516C51.0938 18.9479 51.3398 19.0794 51.5742 19.2461C51.8112 19.4102 52.0065 19.6211 52.1602 19.8789C52.3138 20.1367 52.3906 20.4531 52.3906 20.8281C52.3906 21.2604 52.2773 21.651 52.0508 22C51.8268 22.349 51.4987 22.6263 51.0664 22.832C50.6367 23.0378 50.1146 23.1406 49.5 23.1406C48.9271 23.1406 48.431 23.0482 48.0117 22.8633C47.5951 22.6784 47.2669 22.4206 47.0273 22.0898C46.7904 21.7591 46.6563 21.375 46.625 20.9375H47.625C47.651 21.2396 47.7526 21.4896 47.9297 21.6875C48.1094 21.8828 48.3359 22.0286 48.6094 22.125C48.8854 22.2187 49.1823 22.2656 49.5 22.2656C49.8698 22.2656 50.2018 22.2057 50.4961 22.0859C50.7904 21.9635 51.0234 21.7943 51.1953 21.5781C51.3672 21.3594 51.4531 21.1042 51.4531 20.8125C51.4531 20.5469 51.3789 20.3307 51.2305 20.1641C51.082 19.9974 50.8867 19.862 50.6445 19.7578C50.4023 19.6536 50.1406 19.5625 49.8594 19.4844L48.875 19.2031C48.25 19.0234 47.7552 18.7669 47.3906 18.4336C47.026 18.1003 46.8438 17.6641 46.8438 17.125C46.8438 16.6771 46.9648 16.2865 47.207 15.9531C47.4518 15.6172 47.7799 15.3568 48.1914 15.1719C48.6055 14.9844 49.0677 14.8906 49.5781 14.8906C50.0938 14.8906 50.5521 14.9831 50.9531 15.168C51.3542 15.3503 51.6719 15.6003 51.9062 15.918C52.1432 16.2357 52.2682 16.5964 52.2813 17H51.3438ZM56.374 23.125C55.7959 23.125 55.2972 22.9974 54.8779 22.7422C54.4613 22.4844 54.1396 22.125 53.9131 21.6641C53.6891 21.2005 53.5771 20.6615 53.5771 20.0469C53.5771 19.4323 53.6891 18.8906 53.9131 18.4219C54.1396 17.9505 54.4548 17.5833 54.8584 17.3203C55.2646 17.0547 55.7386 16.9219 56.2803 16.9219C56.5928 16.9219 56.9014 16.974 57.2061 17.0781C57.5107 17.1823 57.7881 17.3516 58.0381 17.5859C58.2881 17.8177 58.4873 18.125 58.6357 18.5078C58.7842 18.8906 58.8584 19.362 58.8584 19.9219V20.3125H54.2334V19.5156H57.9209C57.9209 19.1771 57.8532 18.875 57.7178 18.6094C57.585 18.3437 57.3949 18.1341 57.1475 17.9805C56.9027 17.8268 56.6136 17.75 56.2803 17.75C55.9131 17.75 55.5954 17.8411 55.3271 18.0234C55.0615 18.2031 54.8571 18.4375 54.7139 18.7266C54.5706 19.0156 54.499 19.3255 54.499 19.6562V20.1875C54.499 20.6406 54.5771 21.0247 54.7334 21.3398C54.8923 21.6523 55.1123 21.8906 55.3936 22.0547C55.6748 22.2161 56.0016 22.2969 56.374 22.2969C56.6162 22.2969 56.835 22.263 57.0303 22.1953C57.2282 22.125 57.3988 22.0208 57.542 21.8828C57.6852 21.7422 57.7959 21.5677 57.874 21.3594L58.7646 21.6094C58.6709 21.9115 58.5133 22.1771 58.292 22.4062C58.0706 22.6328 57.7972 22.8099 57.4717 22.9375C57.1462 23.0625 56.7803 23.125 56.374 23.125ZM62.6982 23.125C62.1357 23.125 61.6514 22.9922 61.2451 22.7266C60.8389 22.4609 60.5264 22.0951 60.3076 21.6289C60.0889 21.1628 59.9795 20.6302 59.9795 20.0312C59.9795 19.4219 60.0915 18.8841 60.3154 18.418C60.542 17.9492 60.8571 17.5833 61.2607 17.3203C61.667 17.0547 62.141 16.9219 62.6826 16.9219C63.1045 16.9219 63.4847 17 63.8232 17.1562C64.1618 17.3125 64.4391 17.5312 64.6553 17.8125C64.8714 18.0937 65.0055 18.4219 65.0576 18.7969H64.1357C64.0654 18.5234 63.9092 18.2812 63.667 18.0703C63.4274 17.8568 63.1045 17.75 62.6982 17.75C62.3389 17.75 62.0238 17.8437 61.7529 18.0312C61.4847 18.2161 61.2751 18.4779 61.124 18.8164C60.9756 19.1523 60.9014 19.5469 60.9014 20C60.9014 20.4635 60.9743 20.8672 61.1201 21.2109C61.2686 21.5547 61.4769 21.8216 61.7451 22.0117C62.016 22.2018 62.3337 22.2969 62.6982 22.2969C62.9378 22.2969 63.1553 22.2552 63.3506 22.1719C63.5459 22.0885 63.7113 21.9688 63.8467 21.8125C63.9821 21.6562 64.0785 21.4687 64.1357 21.25H65.0576C65.0055 21.6042 64.8766 21.9232 64.6709 22.207C64.4678 22.4883 64.1982 22.7122 63.8623 22.8789C63.529 23.043 63.141 23.125 62.6982 23.125ZM69.0146 17V17.7812H65.9053V17H69.0146ZM66.8115 15.5625H67.7334V21.2812C67.7334 21.5417 67.7712 21.737 67.8467 21.8672C67.9248 21.9948 68.0238 22.0807 68.1436 22.125C68.266 22.1667 68.3949 22.1875 68.5303 22.1875C68.6318 22.1875 68.7152 22.1823 68.7803 22.1719C68.8454 22.1589 68.8975 22.1484 68.9365 22.1406L69.124 22.9687C69.0615 22.9922 68.9743 23.0156 68.8623 23.0391C68.7503 23.0651 68.6084 23.0781 68.4365 23.0781C68.1761 23.0781 67.9209 23.0221 67.6709 22.9102C67.4235 22.7982 67.2178 22.6276 67.0537 22.3984C66.8923 22.1693 66.8115 21.8802 66.8115 21.5312V15.5625ZM70.4014 23V17H71.3232V23H70.4014ZM70.8701 16C70.6904 16 70.5355 15.9388 70.4053 15.8164C70.2777 15.694 70.2139 15.5469 70.2139 15.375C70.2139 15.2031 70.2777 15.056 70.4053 14.9336C70.5355 14.8112 70.6904 14.75 70.8701 14.75C71.0498 14.75 71.2035 14.8112 71.3311 14.9336C71.4613 15.056 71.5264 15.2031 71.5264 15.375C71.5264 15.5469 71.4613 15.694 71.3311 15.8164C71.2035 15.9388 71.0498 16 70.8701 16ZM75.4492 23.125C74.9076 23.125 74.4323 22.9961 74.0234 22.7383C73.6172 22.4805 73.2995 22.1198 73.0703 21.6562C72.8438 21.1927 72.7305 20.651 72.7305 20.0312C72.7305 19.4062 72.8438 18.8607 73.0703 18.3945C73.2995 17.9284 73.6172 17.5664 74.0234 17.3086C74.4323 17.0508 74.9076 16.9219 75.4492 16.9219C75.9909 16.9219 76.4648 17.0508 76.8711 17.3086C77.2799 17.5664 77.5977 17.9284 77.8242 18.3945C78.0534 18.8607 78.168 19.4062 78.168 20.0312C78.168 20.651 78.0534 21.1927 77.8242 21.6562C77.5977 22.1198 77.2799 22.4805 76.8711 22.7383C76.4648 22.9961 75.9909 23.125 75.4492 23.125ZM75.4492 22.2969C75.8607 22.2969 76.1992 22.1914 76.4648 21.9805C76.7305 21.7695 76.9271 21.4922 77.0547 21.1484C77.1823 20.8047 77.2461 20.4323 77.2461 20.0312C77.2461 19.6302 77.1823 19.2565 77.0547 18.9102C76.9271 18.5638 76.7305 18.2839 76.4648 18.0703C76.1992 17.8568 75.8607 17.75 75.4492 17.75C75.0378 17.75 74.6992 17.8568 74.4336 18.0703C74.168 18.2839 73.9714 18.5638 73.8438 18.9102C73.7161 19.2565 73.6523 19.6302 73.6523 20.0312C73.6523 20.4323 73.7161 20.8047 73.8438 21.1484C73.9714 21.4922 74.168 21.7695 74.4336 21.9805C74.6992 22.1914 75.0378 22.2969 75.4492 22.2969ZM80.4971 19.3906V23H79.5752V17H80.4658V17.9375H80.5439C80.6846 17.6328 80.8981 17.388 81.1846 17.2031C81.471 17.0156 81.8408 16.9219 82.2939 16.9219C82.7002 16.9219 83.0557 17.0052 83.3604 17.1719C83.665 17.3359 83.902 17.5859 84.0713 17.9219C84.2406 18.2552 84.3252 18.6771 84.3252 19.1875V23H83.4033V19.25C83.4033 18.7786 83.2809 18.4115 83.0361 18.1484C82.7913 17.8828 82.4554 17.75 82.0283 17.75C81.734 17.75 81.471 17.8138 81.2393 17.9414C81.0101 18.069 80.8291 18.2552 80.6963 18.5C80.5635 18.7448 80.4971 19.0417 80.4971 19.3906ZM91.9004 15V23H90.9316V16.0156H90.8848L88.9316 17.3125V16.3281L90.9316 15H91.9004Z" fill="white"/>
<defs>
<filter id="filter0_d_1669_162202" x="122" y="126" width="44" height="46" filterUnits="userSpaceOnUse" color-interpolation-filters="sRGB">
<feFlood flood-opacity="0" result="BackgroundImageFix"/>
<feColorMatrix in="SourceAlpha" type="matrix" values="0 0 0 0 0 0 0 0 0 0 0 0 0 0 0 0 0 0 127 0" result="hardAlpha"/>
<feOffset dy="4"/>
<feGaussianBlur stdDeviation="2"/>
<feComposite in2="hardAlpha" operator="out"/>
<feColorMatrix type="matrix" values="0 0 0 0 0 0 0 0 0 0 0 0 0 0 0 0 0 0 0.25 0"/>
<feBlend mode="normal" in2="BackgroundImageFix" result="effect1_dropShadow_1669_162202"/>
<feBlend mode="normal" in="SourceGraphic" in2="effect1_dropShadow_1669_162202" result="shape"/>
</filter>
<filter id="filter1_d_1669_162202" x="49" y="53" width="83" height="83" filterUnits="userSpaceOnUse" color-interpolation-filters="sRGB">
<feFlood flood-opacity="0" result="BackgroundImageFix"/>
<feColorMatrix in="SourceAlpha" type="matrix" values="0 0 0 0 0 0 0 0 0 0 0 0 0 0 0 0 0 0 127 0" result="hardAlpha"/>
<feOffset dy="4"/>
<feGaussianBlur stdDeviation="2"/>
<feComposite in2="hardAlpha" operator="out"/>
<feColorMatrix type="matrix" values="0 0 0 0 0 0 0 0 0 0 0 0 0 0 0 0 0 0 0.25 0"/>
<feBlend mode="normal" in2="BackgroundImageFix" result="effect1_dropShadow_1669_162202"/>
<feBlend mode="normal" in="SourceGraphic" in2="effect1_dropShadow_1669_162202" result="shape"/>
</filter>
</defs>
</svg>
